<svg width="21" height="23" viewBox="0 0 21 23" fill="none" xmlns="http://www.w3.org/2000/svg">
<path d="M19.8897 16.8344H18.8968V8.97837C18.8968 4.01975 15.1135 0 10.4466 0C5.77966 0 1.99637 4.01975 1.99637 8.97837V16.8344H1.05628C0.472912 16.8344 0 17.3369 0 17.9567C0 18.5766 0.472912 19.079 1.05628 19.079H19.8897C20.4731 19.079 20.946 18.5766 20.946 17.9567C20.946 17.3369 20.4731 16.8344 19.8897 16.8344Z" fill="#F9DDCF"/>
<path d="M10.4467 22.4459C11.7863 22.4419 12.9788 21.5433 13.4254 20.2014H7.46796C7.9145 21.5433 9.10703 22.4419 10.4467 22.4459Z" fill="#F9DDCF"/>
</svg>
