<svg width="23" height="25" viewBox="0 0 23 25" fill="none" xmlns="http://www.w3.org/2000/svg">
<path d="M22.0276 9.5298L20.1646 7.78529L19.1994 6.93037L11.927 0.287364C11.5033 -0.095788 10.8692 -0.095788 10.4455 0.287364L3.17305 6.93037L2.20787 7.78529L0.344861 9.5298C-0.0884391 9.95823 -0.117128 10.6619 0.279779 11.1262C0.676685 11.5905 1.35839 11.6507 1.82629 11.2628L2.20787 10.9162V20.794C2.20787 22.7082 3.71528 24.2599 5.57476 24.2599H7.81935V17.3281C7.81935 15.4139 9.32676 13.8622 11.1862 13.8622C13.0457 13.8622 14.5531 15.4139 14.5531 17.3281V24.2599H16.7977C18.6572 24.2599 20.1646 22.7082 20.1646 20.794V10.9162L20.5462 11.2628C21.0113 11.6833 21.7193 11.6367 22.1286 11.1588C22.5371 10.68 22.4919 9.95121 22.0276 9.5298Z" fill="#F05A22"/>
</svg>
